<?xml version="1.0" encoding="UTF-8"?><svg xmlns="http://www.w3.org/2000/svg" xmlns:xlink="http://www.w3.org/1999/xlink" height="231.0" preserveAspectRatio="xMidYMid meet" version="1.0" viewBox="0.0 0.0 231.0 231.0" width="231.0" zoomAndPan="magnify"><g id="change1_1"><path d="M99.8,171.5l18.4-18.4h33.4l21.4-21.4l0.1-67.2H72.4v88.9h27.4V171.5z M139.1,88.6h13.6v37.6h-13.6V88.6z M105.2,88.6h13.6 v37.6h-13.6V88.6z"/><path d="M115.5,0C51.7,0,0,51.7,0,115.5c0,63.8,51.7,115.5,115.5,115.5c63.8,0,115.5-51.7,115.5-115.5C230.9,51.7,179.2,0,115.5,0z M186.2,138.3L149,175.5h-27.4l-18.7,18.7H83.8v-18.9H49.9V75.8l9.5-24.6h126.7V138.3z"/></g></svg>